<mxfile>
    <diagram id="mpTnQIsB4rcMQrHkO9SJ" name="Page-1">
        <mxGraphModel dx="1214" dy="676" grid="1" gridSize="10" guides="1" tooltips="1" connect="1" arrows="1" fold="1" page="1" pageScale="1" pageWidth="827" pageHeight="1169" math="0" shadow="0">
            <root>
                <mxCell id="0"/>
                <mxCell id="1" parent="0"/>
                <mxCell id="2" value="&lt;div style=&quot;font-size: 21px;&quot;&gt;「単に強いかどうかと，他の人がだせそうな手に対して強いかを考える」&lt;/div&gt;&lt;div style=&quot;font-size: 21px;&quot;&gt;&lt;br style=&quot;font-size: 21px;&quot;&gt;&lt;/div&gt;&lt;div style=&quot;font-size: 21px;&quot;&gt;handEval&lt;/div&gt;&lt;div style=&quot;font-size: 21px;&quot;&gt;leftEval&lt;/div&gt;&lt;div style=&quot;font-size: 21px;&quot;&gt;&lt;br style=&quot;font-size: 21px;&quot;&gt;&lt;/div&gt;&lt;div style=&quot;font-size: 21px;&quot;&gt;handEval = absEval + relEval&lt;/div&gt;&lt;div style=&quot;font-size: 21px;&quot;&gt;absEval = (sequent ? INF1 : 0) + numOfCards&lt;/div&gt;&lt;div style=&quot;font-size: 21px;&quot;&gt;relEval = -相手の持つ札全体からなるより強い手の組み合わせ&lt;/div&gt;&lt;div style=&quot;font-size: 21px;&quot;&gt;&lt;br style=&quot;font-size: 21px;&quot;&gt;&lt;/div&gt;&lt;div style=&quot;font-size: 21px;&quot;&gt;leftEval = absEval_left + relEval_left&lt;/div&gt;&lt;div style=&quot;font-size: 21px;&quot;&gt;absEval_left = sum(absEval(hand) : 残る手札全体からなる手)&lt;/div&gt;&lt;div style=&quot;font-size: 21px;&quot;&gt;relEval = sum(relEval(hand) : 残る手札全体からなる手)&amp;nbsp;&lt;/div&gt;" style="text;html=1;resizable=0;autosize=1;align=center;verticalAlign=middle;points=[];fillColor=none;strokeColor=none;rounded=0;fontSize=21;" vertex="1" parent="1">
                    <mxGeometry x="50" y="40" width="710" height="300" as="geometry"/>
                </mxCell>
                <mxCell id="3" value="handEval" style="whiteSpace=wrap;html=1;fontSize=21;" vertex="1" parent="1">
                    <mxGeometry x="330" y="400" width="120" height="40" as="geometry"/>
                </mxCell>
                <mxCell id="4" value="leftEval" style="whiteSpace=wrap;html=1;fontSize=21;" vertex="1" parent="1">
                    <mxGeometry x="580" y="400" width="120" height="40" as="geometry"/>
                </mxCell>
                <mxCell id="6" value="&lt;font style=&quot;font-size: 37px&quot;&gt;+&lt;/font&gt;" style="ellipse;whiteSpace=wrap;html=1;fontSize=21;" vertex="1" parent="1">
                    <mxGeometry x="470" y="400" width="37" height="40" as="geometry"/>
                </mxCell>
                <mxCell id="7" value="b" style="whiteSpace=wrap;html=1;fontSize=21;" vertex="1" parent="1">
                    <mxGeometry x="530" y="400" width="40" height="40" as="geometry"/>
                </mxCell>
                <mxCell id="8" value="a" style="whiteSpace=wrap;html=1;fontSize=21;" vertex="1" parent="1">
                    <mxGeometry x="280" y="400" width="40" height="40" as="geometry"/>
                </mxCell>
                <mxCell id="9" value="Eval" style="whiteSpace=wrap;html=1;fontSize=21;" vertex="1" parent="1">
                    <mxGeometry x="120" y="400" width="80" height="40" as="geometry"/>
                </mxCell>
                <mxCell id="12" value="←" style="ellipse;whiteSpace=wrap;html=1;fontSize=21;" vertex="1" parent="1">
                    <mxGeometry x="220" y="400" width="43" height="40" as="geometry"/>
                </mxCell>
            </root>
        </mxGraphModel>
    </diagram>
</mxfile>